<mxfile host="Electron" modified="2023-08-02T21:54:37.636Z" agent="Mozilla/5.0 (Windows NT 10.0; Win64; x64) AppleWebKit/537.36 (KHTML, like Gecko) draw.io/21.6.5 Chrome/114.0.5735.243 Electron/25.3.1 Safari/537.36" etag="hs19BBRFif4ryKUCdDp5" version="21.6.5" type="device" pages="3">
  <diagram name="3.1" id="SANXYt3DJyvi3ujSwgJx">
    <mxGraphModel dx="1450" dy="1071" grid="1" gridSize="10" guides="1" tooltips="1" connect="0" arrows="0" fold="1" page="0" pageScale="1" pageWidth="850" pageHeight="1100" math="0" shadow="0">
      <root>
        <mxCell id="0" />
        <mxCell id="1" parent="0" />
        <mxCell id="RaOcCajsXDaxVQlQ0A64-1" value="Nhân viên kho" style="html=1;dashed=0;whiteSpace=wrap;fontStyle=1;fillColor=#f5f5f5;fontColor=#333333;strokeColor=#FFC000;strokeWidth=2;fontFamily=Times New Roman;fontSize=12;" parent="1" vertex="1">
          <mxGeometry x="-140" y="-150" width="100" height="60" as="geometry" />
        </mxCell>
        <mxCell id="RaOcCajsXDaxVQlQ0A64-2" value="3.1.1&#xa;&#xa;NHẬP THÔNG TIN NGUYÊN VẬT LIỆU" style="swimlane;fontStyle=1;childLayout=stackLayout;horizontal=1;startSize=20;fillColor=#bac8d3;horizontalStack=0;resizeParent=1;resizeParentMax=0;resizeLast=0;collapsible=0;marginBottom=0;swimlaneFillColor=#bac8d3;fontSize=12;whiteSpace=wrap;gradientColor=none;rounded=1;glass=0;verticalAlign=top;spacing=-1;fontFamily=Times New Roman;" parent="1" vertex="1">
          <mxGeometry x="120" y="-240" width="120" height="80" as="geometry" />
        </mxCell>
        <mxCell id="RaOcCajsXDaxVQlQ0A64-3" value="6&#x9;&lt;span style=&quot;white-space: pre;&quot;&gt;&#x9;&lt;/span&gt;Hồ sơ nhập hàng" style="html=1;dashed=0;whiteSpace=wrap;shape=mxgraph.dfd.dataStoreID;align=left;spacingLeft=8;points=[[0,0],[0.5,0],[1,0],[0,0.5],[1,0.5],[0,1],[0.5,1],[1,1]];fontSize=12;verticalAlign=middle;fillColor=#dae8fc;fontStyle=1;fontFamily=Times New Roman;strokeColor=#6c8ebf;" parent="1" vertex="1">
          <mxGeometry x="360" y="-215" width="130" height="30" as="geometry" />
        </mxCell>
        <mxCell id="RaOcCajsXDaxVQlQ0A64-4" value="7&lt;span style=&quot;white-space: pre; font-size: 12px;&quot;&gt;&#x9;&lt;/span&gt;Kho nguyên vật liệu" style="html=1;dashed=0;whiteSpace=wrap;shape=mxgraph.dfd.dataStoreID;align=left;spacingLeft=8;points=[[0,0],[0.5,0],[1,0],[0,0.5],[1,0.5],[0,1],[0.5,1],[1,1]];fontSize=12;verticalAlign=middle;fillColor=#dae8fc;fontStyle=1;fontFamily=Times New Roman;strokeColor=#6c8ebf;" parent="1" vertex="1">
          <mxGeometry x="360" y="-55" width="150" height="30" as="geometry" />
        </mxCell>
        <mxCell id="RaOcCajsXDaxVQlQ0A64-5" value="" style="endArrow=classic;html=1;rounded=0;edgeStyle=orthogonalEdgeStyle;strokeColor=#FFC000;fontSize=12;jumpStyle=arc;fontFamily=Times New Roman;fontStyle=1" parent="1" source="RaOcCajsXDaxVQlQ0A64-1" target="RaOcCajsXDaxVQlQ0A64-2" edge="1">
          <mxGeometry width="50" height="50" relative="1" as="geometry">
            <mxPoint x="-80" y="-185" as="sourcePoint" />
            <mxPoint x="80" y="-185" as="targetPoint" />
            <Array as="points">
              <mxPoint x="-90" y="-200" />
            </Array>
          </mxGeometry>
        </mxCell>
        <mxCell id="RaOcCajsXDaxVQlQ0A64-6" value="Thông tin nhập hàng" style="text;html=1;align=center;verticalAlign=middle;resizable=0;points=[];autosize=1;strokeColor=none;fillColor=none;fontSize=12;fontStyle=1" parent="1" vertex="1">
          <mxGeometry x="-65" y="-205" width="140" height="30" as="geometry" />
        </mxCell>
        <mxCell id="RaOcCajsXDaxVQlQ0A64-7" value="3&lt;span style=&quot;white-space: pre; font-size: 12px;&quot;&gt;&#x9;&lt;/span&gt;Danh sách các món ăn" style="html=1;dashed=0;whiteSpace=wrap;shape=mxgraph.dfd.dataStoreID;align=left;spacingLeft=8;points=[[0,0],[0.5,0],[1,0],[0,0.5],[1,0.5],[0,1],[0.5,1],[1,1]];fontSize=12;verticalAlign=middle;fillColor=#dae8fc;fontStyle=1;fontFamily=Times New Roman;strokeColor=#6c8ebf;" parent="1" vertex="1">
          <mxGeometry x="360" y="-135" width="160" height="30" as="geometry" />
        </mxCell>
        <mxCell id="RaOcCajsXDaxVQlQ0A64-8" value="" style="endArrow=classic;html=1;rounded=0;edgeStyle=orthogonalEdgeStyle;strokeColor=#00b0f0;fontSize=12;jumpStyle=arc;fontFamily=Times New Roman;fontStyle=1" parent="1" source="RaOcCajsXDaxVQlQ0A64-2" target="RaOcCajsXDaxVQlQ0A64-3" edge="1">
          <mxGeometry width="50" height="50" relative="1" as="geometry">
            <mxPoint x="230" y="-210.34" as="sourcePoint" />
            <mxPoint x="390" y="-210.34" as="targetPoint" />
            <Array as="points">
              <mxPoint x="425" y="-230" />
            </Array>
          </mxGeometry>
        </mxCell>
        <mxCell id="RaOcCajsXDaxVQlQ0A64-9" value="3.1.2&#xa;&#xa;LƯU VÀO CƠ SỞ DỮ LIỆU" style="swimlane;fontStyle=1;childLayout=stackLayout;horizontal=1;startSize=20;fillColor=#bac8d3;horizontalStack=0;resizeParent=1;resizeParentMax=0;resizeLast=0;collapsible=0;marginBottom=0;swimlaneFillColor=#bac8d3;fontSize=12;whiteSpace=wrap;gradientColor=none;rounded=1;glass=0;verticalAlign=top;spacing=-1;fontFamily=Times New Roman;" parent="1" vertex="1">
          <mxGeometry x="120" y="-80" width="120" height="80" as="geometry" />
        </mxCell>
        <mxCell id="RaOcCajsXDaxVQlQ0A64-11" value="" style="endArrow=classic;html=1;rounded=0;edgeStyle=orthogonalEdgeStyle;strokeColor=#000000;fontSize=12;jumpStyle=arc;fontFamily=Times New Roman;fontStyle=1" parent="1" source="RaOcCajsXDaxVQlQ0A64-2" target="RaOcCajsXDaxVQlQ0A64-9" edge="1">
          <mxGeometry width="50" height="50" relative="1" as="geometry">
            <mxPoint x="80" y="-135" as="sourcePoint" />
            <mxPoint x="240" y="-135" as="targetPoint" />
            <Array as="points">
              <mxPoint x="200" y="-120" />
              <mxPoint x="200" y="-120" />
            </Array>
          </mxGeometry>
        </mxCell>
        <mxCell id="RaOcCajsXDaxVQlQ0A64-12" value="" style="endArrow=classic;html=1;rounded=0;edgeStyle=orthogonalEdgeStyle;strokeColor=#FFC000;fontSize=12;jumpStyle=arc;fontFamily=Times New Roman;fontStyle=1" parent="1" source="RaOcCajsXDaxVQlQ0A64-1" target="RaOcCajsXDaxVQlQ0A64-2" edge="1">
          <mxGeometry width="50" height="50" relative="1" as="geometry">
            <mxPoint x="-80" y="-140" as="sourcePoint" />
            <mxPoint x="130" y="-210" as="targetPoint" />
            <Array as="points">
              <mxPoint x="-70" y="-180" />
            </Array>
          </mxGeometry>
        </mxCell>
        <mxCell id="RaOcCajsXDaxVQlQ0A64-13" value="Thông tin nguyên vật liệu" style="text;html=1;align=center;verticalAlign=middle;resizable=0;points=[];autosize=1;strokeColor=none;fillColor=none;fontSize=12;fontStyle=1" parent="1" vertex="1">
          <mxGeometry x="-80" y="-225" width="170" height="30" as="geometry" />
        </mxCell>
        <mxCell id="RaOcCajsXDaxVQlQ0A64-14" value="&quot;Sai&quot;&lt;br&gt;" style="text;html=1;align=center;verticalAlign=middle;resizable=0;points=[];autosize=1;strokeColor=none;fillColor=none;fontSize=12;fontStyle=1" parent="1" vertex="1">
          <mxGeometry x="-20" y="-245" width="50" height="30" as="geometry" />
        </mxCell>
        <mxCell id="RaOcCajsXDaxVQlQ0A64-15" value="" style="endArrow=classic;html=1;rounded=0;edgeStyle=orthogonalEdgeStyle;strokeColor=#FFC000;fontSize=12;jumpStyle=arc;fontFamily=Times New Roman;fontStyle=1" parent="1" source="RaOcCajsXDaxVQlQ0A64-9" target="RaOcCajsXDaxVQlQ0A64-1" edge="1">
          <mxGeometry width="50" height="50" relative="1" as="geometry">
            <mxPoint x="95" y="-40" as="sourcePoint" />
            <mxPoint x="-105" as="targetPoint" />
            <Array as="points">
              <mxPoint x="-90" y="-40" />
            </Array>
          </mxGeometry>
        </mxCell>
        <mxCell id="RaOcCajsXDaxVQlQ0A64-16" value="&quot;Thêm nguyên vật liệu thành công&quot;" style="text;html=1;align=center;verticalAlign=middle;resizable=0;points=[];autosize=1;strokeColor=none;fillColor=none;fontSize=12;fontStyle=1" parent="1" vertex="1">
          <mxGeometry x="-100" y="-65" width="230" height="30" as="geometry" />
        </mxCell>
        <mxCell id="RaOcCajsXDaxVQlQ0A64-17" value="" style="endArrow=classic;html=1;rounded=0;edgeStyle=orthogonalEdgeStyle;strokeColor=#FFC000;fontSize=12;jumpStyle=arc;fontFamily=Times New Roman;fontStyle=1" parent="1" source="RaOcCajsXDaxVQlQ0A64-2" target="RaOcCajsXDaxVQlQ0A64-1" edge="1">
          <mxGeometry width="50" height="50" relative="1" as="geometry">
            <mxPoint x="130" y="-190" as="sourcePoint" />
            <mxPoint x="-90" y="-140" as="targetPoint" />
            <Array as="points">
              <mxPoint x="-110" y="-220" />
            </Array>
          </mxGeometry>
        </mxCell>
        <mxCell id="RaOcCajsXDaxVQlQ0A64-18" value="" style="endArrow=classic;html=1;rounded=0;edgeStyle=orthogonalEdgeStyle;strokeColor=#000000;fontSize=12;jumpStyle=arc;fontFamily=Times New Roman;fontStyle=1" parent="1" source="RaOcCajsXDaxVQlQ0A64-2" target="RaOcCajsXDaxVQlQ0A64-9" edge="1">
          <mxGeometry width="50" height="50" relative="1" as="geometry">
            <mxPoint x="160" y="-160" as="sourcePoint" />
            <mxPoint x="160" y="-80" as="targetPoint" />
            <Array as="points">
              <mxPoint x="160" y="-120" />
              <mxPoint x="160" y="-120" />
            </Array>
          </mxGeometry>
        </mxCell>
        <mxCell id="RaOcCajsXDaxVQlQ0A64-19" value="Thông tin nguyên vật liệu" style="text;html=1;align=center;verticalAlign=middle;resizable=0;points=[];autosize=1;strokeColor=none;fillColor=none;fontSize=12;fontStyle=1" parent="1" vertex="1">
          <mxGeometry x="40" y="-120" width="170" height="30" as="geometry" />
        </mxCell>
        <mxCell id="RaOcCajsXDaxVQlQ0A64-20" value="&quot;Đúng&quot;" style="text;html=1;align=center;verticalAlign=middle;resizable=0;points=[];autosize=1;strokeColor=none;fillColor=none;fontSize=12;fontStyle=1" parent="1" vertex="1">
          <mxGeometry x="160" y="-150" width="70" height="30" as="geometry" />
        </mxCell>
        <mxCell id="RaOcCajsXDaxVQlQ0A64-21" value="" style="endArrow=classic;html=1;rounded=0;edgeStyle=orthogonalEdgeStyle;strokeColor=#00b0f0;fontSize=12;jumpStyle=arc;fontFamily=Times New Roman;fontStyle=1" parent="1" source="RaOcCajsXDaxVQlQ0A64-3" target="RaOcCajsXDaxVQlQ0A64-2" edge="1">
          <mxGeometry width="50" height="50" relative="1" as="geometry">
            <mxPoint x="425" y="-175" as="sourcePoint" />
            <mxPoint x="240" y="-190" as="targetPoint" />
            <Array as="points">
              <mxPoint x="425" y="-170" />
            </Array>
          </mxGeometry>
        </mxCell>
        <mxCell id="RaOcCajsXDaxVQlQ0A64-22" value="" style="endArrow=classic;html=1;rounded=0;edgeStyle=orthogonalEdgeStyle;strokeColor=#00b0f0;fontSize=12;jumpStyle=arc;fontFamily=Times New Roman;fontStyle=1" parent="1" source="RaOcCajsXDaxVQlQ0A64-9" target="RaOcCajsXDaxVQlQ0A64-7" edge="1">
          <mxGeometry width="50" height="50" relative="1" as="geometry">
            <mxPoint x="230" y="-80.03" as="sourcePoint" />
            <mxPoint x="415" y="-95.03" as="targetPoint" />
            <Array as="points">
              <mxPoint x="330" y="-60" />
              <mxPoint x="330" y="-120" />
            </Array>
          </mxGeometry>
        </mxCell>
        <mxCell id="RaOcCajsXDaxVQlQ0A64-23" value="" style="endArrow=classic;html=1;rounded=0;edgeStyle=orthogonalEdgeStyle;strokeColor=#00b0f0;fontSize=12;jumpStyle=arc;fontFamily=Times New Roman;fontStyle=1" parent="1" source="RaOcCajsXDaxVQlQ0A64-9" target="RaOcCajsXDaxVQlQ0A64-4" edge="1">
          <mxGeometry width="50" height="50" relative="1" as="geometry">
            <mxPoint x="240" y="10" as="sourcePoint" />
            <mxPoint x="415" y="-35" as="targetPoint" />
            <Array as="points">
              <mxPoint x="330" y="-40" />
              <mxPoint x="330" y="-40" />
            </Array>
          </mxGeometry>
        </mxCell>
      </root>
    </mxGraphModel>
  </diagram>
  <diagram id="akmXiCKnjY1lUQc47gMs" name="3.2">
    <mxGraphModel dx="1273" dy="959" grid="1" gridSize="10" guides="1" tooltips="1" connect="0" arrows="0" fold="1" page="0" pageScale="1" pageWidth="850" pageHeight="1100" math="0" shadow="0">
      <root>
        <mxCell id="0" />
        <mxCell id="1" parent="0" />
        <mxCell id="brkSv7y448y_53fz2aOt-1" value="Nhân viên kho" style="html=1;dashed=0;whiteSpace=wrap;fontStyle=1;fillColor=#f5f5f5;fontColor=#333333;strokeColor=#FFC000;strokeWidth=2;fontFamily=Times New Roman;fontSize=12;" vertex="1" parent="1">
          <mxGeometry x="-140" y="-150" width="100" height="60" as="geometry" />
        </mxCell>
        <mxCell id="brkSv7y448y_53fz2aOt-2" value="3.2.1&#xa;&#xa;TÌM NGUYÊN VẬT LIỆU CẦN CHỈNH SỬA" style="swimlane;fontStyle=1;childLayout=stackLayout;horizontal=1;startSize=20;fillColor=#bac8d3;horizontalStack=0;resizeParent=1;resizeParentMax=0;resizeLast=0;collapsible=0;marginBottom=0;swimlaneFillColor=#bac8d3;fontSize=12;whiteSpace=wrap;gradientColor=none;rounded=1;glass=0;verticalAlign=top;spacing=-1;fontFamily=Times New Roman;" vertex="1" parent="1">
          <mxGeometry x="120" y="-240" width="120" height="80" as="geometry" />
        </mxCell>
        <mxCell id="brkSv7y448y_53fz2aOt-4" value="7&lt;span style=&quot;white-space: pre; font-size: 12px;&quot;&gt;&#x9;&lt;/span&gt;Kho nguyên vật liệu" style="html=1;dashed=0;whiteSpace=wrap;shape=mxgraph.dfd.dataStoreID;align=left;spacingLeft=8;points=[[0,0],[0.5,0],[1,0],[0,0.5],[1,0.5],[0,1],[0.5,1],[1,1]];fontSize=12;verticalAlign=middle;fillColor=#dae8fc;fontStyle=1;fontFamily=Times New Roman;strokeColor=#6c8ebf;" vertex="1" parent="1">
          <mxGeometry x="360" y="-135" width="150" height="30" as="geometry" />
        </mxCell>
        <mxCell id="brkSv7y448y_53fz2aOt-5" value="Thông tin tra cứu nguyên vật liệu" style="text;html=1;align=center;verticalAlign=middle;resizable=0;points=[];autosize=1;strokeColor=none;fillColor=none;fontSize=12;fontStyle=1" vertex="1" parent="1">
          <mxGeometry x="-90" y="-215" width="210" height="30" as="geometry" />
        </mxCell>
        <mxCell id="brkSv7y448y_53fz2aOt-7" value="" style="endArrow=classic;html=1;rounded=0;edgeStyle=orthogonalEdgeStyle;strokeColor=#FFC000;fontSize=12;jumpStyle=arc;fontFamily=Times New Roman;fontStyle=1" edge="1" parent="1" source="brkSv7y448y_53fz2aOt-1" target="brkSv7y448y_53fz2aOt-2">
          <mxGeometry width="50" height="50" relative="1" as="geometry">
            <mxPoint x="-90" y="-210" as="sourcePoint" />
            <mxPoint x="70" y="-210" as="targetPoint" />
            <Array as="points">
              <mxPoint x="-80" y="-190" />
            </Array>
          </mxGeometry>
        </mxCell>
        <mxCell id="brkSv7y448y_53fz2aOt-8" value="" style="endArrow=classic;html=1;rounded=0;edgeStyle=orthogonalEdgeStyle;strokeColor=#00b0f0;fontSize=12;jumpStyle=arc;fontFamily=Times New Roman;fontStyle=1" edge="1" parent="1" target="brkSv7y448y_53fz2aOt-2" source="brkSv7y448y_53fz2aOt-4">
          <mxGeometry width="50" height="50" relative="1" as="geometry">
            <mxPoint x="460" y="-200.42" as="sourcePoint" />
            <mxPoint x="300" y="-200.42" as="targetPoint" />
            <Array as="points">
              <mxPoint x="435" y="-200" />
            </Array>
          </mxGeometry>
        </mxCell>
        <mxCell id="drfgcYH1ssyCkEoJPgyW-1" value="" style="endArrow=classic;html=1;rounded=0;edgeStyle=orthogonalEdgeStyle;strokeColor=#000000;fontSize=12;jumpStyle=arc;fontFamily=Times New Roman;fontStyle=1" edge="1" parent="1" source="brkSv7y448y_53fz2aOt-2" target="drfgcYH1ssyCkEoJPgyW-2">
          <mxGeometry width="50" height="50" relative="1" as="geometry">
            <mxPoint x="150" y="-135" as="sourcePoint" />
            <mxPoint x="310" y="-135" as="targetPoint" />
            <Array as="points">
              <mxPoint x="200" y="-140" />
              <mxPoint x="200" y="-140" />
            </Array>
          </mxGeometry>
        </mxCell>
        <mxCell id="drfgcYH1ssyCkEoJPgyW-2" value="3.2.2&#xa;&#xa;CẬP NHẬT THÔNG TIN NGUYÊN VẬT LIỆU" style="swimlane;fontStyle=1;childLayout=stackLayout;horizontal=1;startSize=20;fillColor=#bac8d3;horizontalStack=0;resizeParent=1;resizeParentMax=0;resizeLast=0;collapsible=0;marginBottom=0;swimlaneFillColor=#bac8d3;fontSize=12;whiteSpace=wrap;gradientColor=none;rounded=1;glass=0;verticalAlign=top;spacing=-1;fontFamily=Times New Roman;" vertex="1" parent="1">
          <mxGeometry x="120" y="-80" width="120" height="80" as="geometry" />
        </mxCell>
        <mxCell id="H7qz72c_Dt4CS8BkqSaq-1" value="" style="endArrow=classic;html=1;rounded=0;edgeStyle=orthogonalEdgeStyle;strokeColor=#FFC000;fontSize=12;jumpStyle=arc;fontFamily=Times New Roman;fontStyle=1" edge="1" parent="1" source="brkSv7y448y_53fz2aOt-2" target="brkSv7y448y_53fz2aOt-1">
          <mxGeometry width="50" height="50" relative="1" as="geometry">
            <mxPoint x="110" y="-210" as="sourcePoint" />
            <mxPoint x="-90" y="-170" as="targetPoint" />
            <Array as="points">
              <mxPoint x="-100" y="-210" />
            </Array>
          </mxGeometry>
        </mxCell>
        <mxCell id="H7qz72c_Dt4CS8BkqSaq-2" value="&quot;Không tìm thấy&quot;" style="text;html=1;align=center;verticalAlign=middle;resizable=0;points=[];autosize=1;strokeColor=none;fillColor=none;fontSize=12;fontStyle=1" vertex="1" parent="1">
          <mxGeometry x="-45" y="-235" width="120" height="30" as="geometry" />
        </mxCell>
        <mxCell id="H7qz72c_Dt4CS8BkqSaq-3" value="" style="endArrow=classic;html=1;rounded=0;edgeStyle=orthogonalEdgeStyle;strokeColor=#000000;fontSize=12;jumpStyle=arc;fontFamily=Times New Roman;fontStyle=1" edge="1" parent="1" source="brkSv7y448y_53fz2aOt-2" target="drfgcYH1ssyCkEoJPgyW-2">
          <mxGeometry width="50" height="50" relative="1" as="geometry">
            <mxPoint x="160" y="-160" as="sourcePoint" />
            <mxPoint x="160" y="-80" as="targetPoint" />
            <Array as="points">
              <mxPoint x="160" y="-120" />
              <mxPoint x="160" y="-120" />
            </Array>
          </mxGeometry>
        </mxCell>
        <mxCell id="H7qz72c_Dt4CS8BkqSaq-4" value="&quot;Tìm thấy&quot;" style="text;html=1;align=center;verticalAlign=middle;resizable=0;points=[];autosize=1;strokeColor=none;fillColor=none;fontSize=12;fontStyle=1" vertex="1" parent="1">
          <mxGeometry x="162" y="-160" width="80" height="30" as="geometry" />
        </mxCell>
        <mxCell id="H7qz72c_Dt4CS8BkqSaq-5" value="Thông tin tra cứu nguyên vật liệu" style="text;html=1;align=center;verticalAlign=middle;resizable=0;points=[];autosize=1;strokeColor=none;fillColor=none;fontSize=12;fontStyle=1" vertex="1" parent="1">
          <mxGeometry x="50" y="-120" width="210" height="30" as="geometry" />
        </mxCell>
        <mxCell id="H7qz72c_Dt4CS8BkqSaq-6" value="" style="endArrow=classic;html=1;rounded=0;edgeStyle=orthogonalEdgeStyle;strokeColor=#FFC000;fontSize=12;jumpStyle=arc;fontFamily=Times New Roman;fontStyle=1" edge="1" parent="1" source="drfgcYH1ssyCkEoJPgyW-2" target="brkSv7y448y_53fz2aOt-1">
          <mxGeometry width="50" height="50" relative="1" as="geometry">
            <mxPoint x="110" y="-50" as="sourcePoint" />
            <mxPoint x="-110" y="10" as="targetPoint" />
            <Array as="points">
              <mxPoint x="-100" y="-30" />
            </Array>
          </mxGeometry>
        </mxCell>
        <mxCell id="H7qz72c_Dt4CS8BkqSaq-7" value="" style="endArrow=classic;html=1;rounded=0;edgeStyle=orthogonalEdgeStyle;strokeColor=#FFC000;fontSize=12;jumpStyle=arc;fontFamily=Times New Roman;fontStyle=1" edge="1" parent="1" source="brkSv7y448y_53fz2aOt-1" target="drfgcYH1ssyCkEoJPgyW-2">
          <mxGeometry width="50" height="50" relative="1" as="geometry">
            <mxPoint x="-90" y="-80" as="sourcePoint" />
            <mxPoint x="130" y="-20" as="targetPoint" />
            <Array as="points">
              <mxPoint x="-80" y="-50" />
            </Array>
          </mxGeometry>
        </mxCell>
        <mxCell id="H7qz72c_Dt4CS8BkqSaq-8" value="Kết quả tra cứu nguyên vật liệu" style="text;html=1;align=center;verticalAlign=middle;resizable=0;points=[];autosize=1;strokeColor=none;fillColor=none;fontSize=12;fontStyle=1" vertex="1" parent="1">
          <mxGeometry x="-85" y="-55" width="200" height="30" as="geometry" />
        </mxCell>
        <mxCell id="H7qz72c_Dt4CS8BkqSaq-9" value="Thông tin mới của nguyên vật liệu" style="text;html=1;align=center;verticalAlign=middle;resizable=0;points=[];autosize=1;strokeColor=none;fillColor=none;fontSize=12;fontStyle=1" vertex="1" parent="1">
          <mxGeometry x="-92" y="-75" width="220" height="30" as="geometry" />
        </mxCell>
        <mxCell id="H7qz72c_Dt4CS8BkqSaq-10" value="" style="endArrow=classic;html=1;rounded=0;edgeStyle=orthogonalEdgeStyle;strokeColor=#00b0f0;fontSize=12;jumpStyle=arc;fontFamily=Times New Roman;fontStyle=1" edge="1" parent="1" source="drfgcYH1ssyCkEoJPgyW-2" target="brkSv7y448y_53fz2aOt-4">
          <mxGeometry width="50" height="50" relative="1" as="geometry">
            <mxPoint x="280" y="-65" as="sourcePoint" />
            <mxPoint x="470" as="targetPoint" />
            <Array as="points">
              <mxPoint x="420" y="-50" />
            </Array>
          </mxGeometry>
        </mxCell>
        <mxCell id="H7qz72c_Dt4CS8BkqSaq-11" value="" style="endArrow=classic;html=1;rounded=0;edgeStyle=orthogonalEdgeStyle;strokeColor=#00b0f0;fontSize=12;jumpStyle=arc;fontFamily=Times New Roman;fontStyle=1" edge="1" parent="1" source="brkSv7y448y_53fz2aOt-4" target="drfgcYH1ssyCkEoJPgyW-2">
          <mxGeometry width="50" height="50" relative="1" as="geometry">
            <mxPoint x="430" y="-95" as="sourcePoint" />
            <mxPoint x="250" y="-40" as="targetPoint" />
            <Array as="points">
              <mxPoint x="450" y="-30" />
            </Array>
          </mxGeometry>
        </mxCell>
      </root>
    </mxGraphModel>
  </diagram>
  <diagram id="bGbdtz2o26YsSeJOBWM_" name="3.3">
    <mxGraphModel dx="1450" dy="1071" grid="1" gridSize="10" guides="1" tooltips="1" connect="0" arrows="0" fold="1" page="0" pageScale="1" pageWidth="850" pageHeight="1100" math="0" shadow="0">
      <root>
        <mxCell id="0" />
        <mxCell id="1" parent="0" />
        <mxCell id="e8LmyEmYqnOKuUH_rhd--1" value="Nhân viên kho" style="html=1;dashed=0;whiteSpace=wrap;fontStyle=1;fillColor=#f5f5f5;fontColor=#333333;strokeColor=#FFC000;strokeWidth=2;fontFamily=Times New Roman;fontSize=12;" parent="1" vertex="1">
          <mxGeometry x="-140" y="-150" width="100" height="60" as="geometry" />
        </mxCell>
        <mxCell id="e8LmyEmYqnOKuUH_rhd--2" value="3.3.1&#xa;&#xa;TÌM NGUYÊN VẬT LIỆU CẦN XÓA" style="swimlane;fontStyle=1;childLayout=stackLayout;horizontal=1;startSize=20;fillColor=#bac8d3;horizontalStack=0;resizeParent=1;resizeParentMax=0;resizeLast=0;collapsible=0;marginBottom=0;swimlaneFillColor=#bac8d3;fontSize=12;whiteSpace=wrap;gradientColor=none;rounded=1;glass=0;verticalAlign=top;spacing=-1;fontFamily=Times New Roman;" parent="1" vertex="1">
          <mxGeometry x="120" y="-240" width="120" height="80" as="geometry" />
        </mxCell>
        <mxCell id="e8LmyEmYqnOKuUH_rhd--3" value="7&lt;span style=&quot;white-space: pre; font-size: 12px;&quot;&gt;&#x9;&lt;/span&gt;Kho nguyên vật liệu" style="html=1;dashed=0;whiteSpace=wrap;shape=mxgraph.dfd.dataStoreID;align=left;spacingLeft=8;points=[[0,0],[0.5,0],[1,0],[0,0.5],[1,0.5],[0,1],[0.5,1],[1,1]];fontSize=12;verticalAlign=middle;fillColor=#dae8fc;fontStyle=1;fontFamily=Times New Roman;strokeColor=#6c8ebf;" parent="1" vertex="1">
          <mxGeometry x="360" y="-135" width="150" height="30" as="geometry" />
        </mxCell>
        <mxCell id="e8LmyEmYqnOKuUH_rhd--4" value="" style="endArrow=classic;html=1;rounded=0;edgeStyle=orthogonalEdgeStyle;strokeColor=#FFC000;fontSize=12;jumpStyle=arc;fontFamily=Times New Roman;fontStyle=1" parent="1" source="e8LmyEmYqnOKuUH_rhd--1" target="e8LmyEmYqnOKuUH_rhd--2" edge="1">
          <mxGeometry width="50" height="50" relative="1" as="geometry">
            <mxPoint x="-90" y="-200.42" as="sourcePoint" />
            <mxPoint x="70" y="-200.42" as="targetPoint" />
            <Array as="points">
              <mxPoint x="-80" y="-190" />
            </Array>
          </mxGeometry>
        </mxCell>
        <mxCell id="e8LmyEmYqnOKuUH_rhd--5" value="" style="endArrow=classic;html=1;rounded=0;edgeStyle=orthogonalEdgeStyle;strokeColor=#00b0f0;fontSize=12;jumpStyle=arc;fontFamily=Times New Roman;fontStyle=1" parent="1" source="e8LmyEmYqnOKuUH_rhd--3" target="e8LmyEmYqnOKuUH_rhd--2" edge="1">
          <mxGeometry width="50" height="50" relative="1" as="geometry">
            <mxPoint x="450" y="-205" as="sourcePoint" />
            <mxPoint x="290" y="-205" as="targetPoint" />
            <Array as="points">
              <mxPoint x="435" y="-200" />
            </Array>
          </mxGeometry>
        </mxCell>
        <mxCell id="e8LmyEmYqnOKuUH_rhd--6" value="&quot;Không tìm thấy&quot;" style="text;html=1;align=center;verticalAlign=middle;resizable=0;points=[];autosize=1;strokeColor=none;fillColor=none;fontSize=12;fontStyle=1" parent="1" vertex="1">
          <mxGeometry x="-50" y="-235" width="120" height="30" as="geometry" />
        </mxCell>
        <mxCell id="e8LmyEmYqnOKuUH_rhd--7" value="" style="endArrow=classic;html=1;rounded=0;edgeStyle=orthogonalEdgeStyle;strokeColor=#000000;fontSize=12;jumpStyle=arc;fontFamily=Times New Roman;fontStyle=1" parent="1" source="e8LmyEmYqnOKuUH_rhd--2" target="e8LmyEmYqnOKuUH_rhd--8" edge="1">
          <mxGeometry width="50" height="50" relative="1" as="geometry">
            <mxPoint x="130" y="-135" as="sourcePoint" />
            <mxPoint x="290" y="-135" as="targetPoint" />
            <Array as="points">
              <mxPoint x="200" y="-120" />
              <mxPoint x="200" y="-120" />
            </Array>
          </mxGeometry>
        </mxCell>
        <mxCell id="e8LmyEmYqnOKuUH_rhd--8" value="3.3.2&#xa;&#xa;XÁC NHẬN XÓA NGUYÊN VẬT LIỆU" style="swimlane;fontStyle=1;childLayout=stackLayout;horizontal=1;startSize=20;fillColor=#bac8d3;horizontalStack=0;resizeParent=1;resizeParentMax=0;resizeLast=0;collapsible=0;marginBottom=0;swimlaneFillColor=#bac8d3;fontSize=12;whiteSpace=wrap;gradientColor=none;rounded=1;glass=0;verticalAlign=top;spacing=-1;fontFamily=Times New Roman;" parent="1" vertex="1">
          <mxGeometry x="120" y="-80" width="120" height="80" as="geometry" />
        </mxCell>
        <mxCell id="e8LmyEmYqnOKuUH_rhd--9" value="" style="endArrow=classic;html=1;rounded=0;edgeStyle=orthogonalEdgeStyle;strokeColor=#FFC000;fontSize=12;jumpStyle=arc;fontFamily=Times New Roman;fontStyle=1" parent="1" source="e8LmyEmYqnOKuUH_rhd--2" target="e8LmyEmYqnOKuUH_rhd--1" edge="1">
          <mxGeometry width="50" height="50" relative="1" as="geometry">
            <mxPoint x="110" y="-200" as="sourcePoint" />
            <mxPoint x="-90" y="-170" as="targetPoint" />
            <Array as="points">
              <mxPoint x="-100" y="-210" />
            </Array>
          </mxGeometry>
        </mxCell>
        <mxCell id="e8LmyEmYqnOKuUH_rhd--10" value="" style="endArrow=classic;html=1;rounded=0;edgeStyle=orthogonalEdgeStyle;strokeColor=#000000;fontSize=12;jumpStyle=arc;fontFamily=Times New Roman;fontStyle=1" parent="1" source="e8LmyEmYqnOKuUH_rhd--2" target="e8LmyEmYqnOKuUH_rhd--8" edge="1">
          <mxGeometry width="50" height="50" relative="1" as="geometry">
            <mxPoint x="210" y="-150" as="sourcePoint" />
            <mxPoint x="210" y="-70" as="targetPoint" />
            <Array as="points">
              <mxPoint x="160" y="-120" />
              <mxPoint x="160" y="-120" />
            </Array>
          </mxGeometry>
        </mxCell>
        <mxCell id="e8LmyEmYqnOKuUH_rhd--11" value="Thông tin tra cứu nguyên vật liệu" style="text;html=1;align=center;verticalAlign=middle;resizable=0;points=[];autosize=1;strokeColor=none;fillColor=none;fontSize=12;fontStyle=1" parent="1" vertex="1">
          <mxGeometry x="-95" y="-215" width="210" height="30" as="geometry" />
        </mxCell>
        <mxCell id="e8LmyEmYqnOKuUH_rhd--12" value="&quot;Tìm thấy&quot;" style="text;html=1;align=center;verticalAlign=middle;resizable=0;points=[];autosize=1;strokeColor=none;fillColor=none;fontSize=12;fontStyle=1" parent="1" vertex="1">
          <mxGeometry x="162" y="-160" width="80" height="30" as="geometry" />
        </mxCell>
        <mxCell id="e8LmyEmYqnOKuUH_rhd--13" value="Thông tin tra cứu nguyên vật liệu" style="text;html=1;align=center;verticalAlign=middle;resizable=0;points=[];autosize=1;strokeColor=none;fillColor=none;fontSize=12;fontStyle=1" parent="1" vertex="1">
          <mxGeometry x="50" y="-120" width="210" height="30" as="geometry" />
        </mxCell>
        <mxCell id="e8LmyEmYqnOKuUH_rhd--14" value="" style="endArrow=classic;html=1;rounded=0;edgeStyle=orthogonalEdgeStyle;strokeColor=#FFC000;fontSize=12;jumpStyle=arc;fontFamily=Times New Roman;fontStyle=1" parent="1" source="e8LmyEmYqnOKuUH_rhd--1" target="e8LmyEmYqnOKuUH_rhd--8" edge="1">
          <mxGeometry width="50" height="50" relative="1" as="geometry">
            <mxPoint x="-100" as="sourcePoint" />
            <mxPoint x="100" y="-40" as="targetPoint" />
            <Array as="points">
              <mxPoint x="-80" y="-50" />
            </Array>
          </mxGeometry>
        </mxCell>
        <mxCell id="e8LmyEmYqnOKuUH_rhd--15" value="" style="endArrow=classic;html=1;rounded=0;edgeStyle=orthogonalEdgeStyle;strokeColor=#FFC000;fontSize=12;jumpStyle=arc;fontFamily=Times New Roman;fontStyle=1" parent="1" source="e8LmyEmYqnOKuUH_rhd--8" target="e8LmyEmYqnOKuUH_rhd--1" edge="1">
          <mxGeometry width="50" height="50" relative="1" as="geometry">
            <mxPoint x="130" y="-40" as="sourcePoint" />
            <mxPoint x="-70" y="-80" as="targetPoint" />
            <Array as="points">
              <mxPoint x="-100" y="-30" />
            </Array>
          </mxGeometry>
        </mxCell>
        <mxCell id="lPSa3H6fJliPZZ3dsiqp-1" value="Kết quả tra cứu nguyên vật liệu" style="text;html=1;align=center;verticalAlign=middle;resizable=0;points=[];autosize=1;strokeColor=none;fillColor=none;fontSize=12;fontStyle=1" parent="1" vertex="1">
          <mxGeometry x="-85" y="-55" width="200" height="30" as="geometry" />
        </mxCell>
        <mxCell id="geerOcMzCaxi3qKBxkOk-1" value="Danh sách sau khi xóa" style="text;html=1;align=center;verticalAlign=middle;resizable=0;points=[];autosize=1;strokeColor=none;fillColor=none;fontSize=12;fontStyle=1" parent="1" vertex="1">
          <mxGeometry x="-57" y="-75" width="150" height="30" as="geometry" />
        </mxCell>
        <mxCell id="geerOcMzCaxi3qKBxkOk-2" value="" style="endArrow=classic;html=1;rounded=0;edgeStyle=orthogonalEdgeStyle;strokeColor=#00b0f0;fontSize=12;jumpStyle=arc;fontFamily=Times New Roman;fontStyle=1" parent="1" source="e8LmyEmYqnOKuUH_rhd--3" target="e8LmyEmYqnOKuUH_rhd--8" edge="1">
          <mxGeometry width="50" height="50" relative="1" as="geometry">
            <mxPoint x="475" y="20" as="sourcePoint" />
            <mxPoint x="280" y="-45" as="targetPoint" />
            <Array as="points">
              <mxPoint x="420" y="-50" />
            </Array>
          </mxGeometry>
        </mxCell>
        <mxCell id="geerOcMzCaxi3qKBxkOk-3" value="" style="endArrow=classic;html=1;rounded=0;edgeStyle=orthogonalEdgeStyle;strokeColor=#00b0f0;fontSize=12;jumpStyle=arc;fontFamily=Times New Roman;fontStyle=1" parent="1" source="e8LmyEmYqnOKuUH_rhd--8" target="e8LmyEmYqnOKuUH_rhd--3" edge="1">
          <mxGeometry width="50" height="50" relative="1" as="geometry">
            <mxPoint x="250" y="-40" as="sourcePoint" />
            <mxPoint x="430" y="-95" as="targetPoint" />
            <Array as="points">
              <mxPoint x="450" y="-30" />
            </Array>
          </mxGeometry>
        </mxCell>
      </root>
    </mxGraphModel>
  </diagram>
</mxfile>
